<svg 
 xmlns="http://www.w3.org/2000/svg"
 xmlns:xlink="http://www.w3.org/1999/xlink"
 width="1007px" height="983px">
<path fill-rule="evenodd"  fill="rgb(193, 18, 31)"
 d="M871.000,-0.000 C961.306,-1.478 1032.106,75.180 992.1000,166.000 C975.504,206.632 939.428,228.835 888.1000,237.000 C816.790,248.692 746.791,161.035 768.1000,86.1000 C779.925,50.580 806.306,20.681 839.1000,6.1000 C850.332,4.667 860.668,2.333 871.000,-0.000 ZM240.1000,12.1000 C326.985,16.026 341.399,63.639 374.1000,117.000 C401.664,157.996 428.336,199.004 455.000,239.1000 C614.984,485.975 775.016,732.025 935.000,978.000 C880.005,978.000 824.995,978.000 769.1000,978.000 C744.048,977.1000 712.031,981.000 691.1000,974.000 C623.928,950.211 592.841,870.002 556.1000,813.000 C455.010,654.682 352.990,496.317 250.1000,338.000 C250.667,338.000 250.333,338.000 249.1000,338.000 C249.1000,484.985 249.1000,632.015 249.1000,779.000 C250.004,835.537 263.308,919.465 236.000,954.1000 C227.924,965.509 211.872,974.645 197.000,978.000 C163.542,985.548 56.150,983.098 35.000,970.000 C-13.413,940.019 3.996,832.765 3.1000,760.000 C3.1000,586.684 3.1000,413.316 3.1000,239.1000 C3.998,186.013 -8.264,72.039 14.1000,39.1000 C42.545,2.064 129.712,13.997 194.000,13.1000 C209.665,13.667 225.335,13.333 240.1000,12.1000 ZM868.1000,284.000 C914.759,283.487 973.401,279.884 992.1000,306.000 C1015.415,335.869 1003.004,432.762 1002.1000,480.1000 C1002.1000,631.985 1002.1000,783.015 1002.1000,933.1000 C1001.667,933.000 1000.333,931.1000 999.000,931.000 C920.675,810.012 842.325,688.988 764.000,567.1000 C764.000,547.669 764.000,527.331 764.000,506.1000 C764.001,459.463 753.594,328.717 775.000,304.1000 C789.666,288.751 811.779,289.643 839.000,285.000 C848.999,284.667 859.001,284.333 868.1000,284.000 Z"/>
</svg>